# xmcd
#
# Track frame offsets:
#	150
#	17123
#	50609
#	74800
#	97535
#	110379
#	126125
#	148925
#	166958
#	188951
#	207038
#
# Disc length: 2972 seconds
#
# Revision: 0
# Processed by: cddbd v1.5.1PL0 Copyright (c) Steve Scherf et al.
# Submitted via: dBpowerAMP V4.0
#
DISCID=9c0b9a0b
DTITLE=BluesMachine - Once Again
DYEAR=2003
DGENRE=Blues
TTITLE0=Checking on my baby
TTITLE1=Once again
TTITLE2=Everybody ought to make a change
TTITLE3=Rabling on my mind
TTITLE4=I cried my eyes out
TTITLE5=Someone else is steppin in
TTITLE6=I smell trouble
TTITLE7=He treats your daughter mean
TTITLE8=It took a long time
TTITLE9=Voodoo woman
TTITLE10=Little by little
EXTD=Band Name: BluesMachine - Album Name: Once Again     My Name=Marc van Diem
EXTT0=
EXTT1=
EXTT2=
EXTT3=
EXTT4=
EXTT5=
EXTT6=
EXTT7=
EXTT8=
EXTT9=
EXTT10=
PLAYORDER=
